<?xml version="1.0" encoding="UTF-8"?>
<svg width="59px" height="59px" viewBox="0 0 59 59" version="1.1" xmlns="http://www.w3.org/2000/svg" xmlns:xlink="http://www.w3.org/1999/xlink">
    <title>Artboard</title>
    <g id="Artboard" stroke="none" stroke-width="1" fill="none" fill-rule="evenodd">
        <g id="bike-icon">
            <path d="M29.5,0 C45.7924286,0 59,13.2075714 59,29.5 C59,45.7924286 45.7924286,59 29.5,59 C13.2075714,59 0,45.7924286 0,29.5 C0,13.2075714 13.2075714,0 29.5,0" id="Fill-1" fill="#2D35FF"></path>
            <path d="M40.6973679,39.7647388 C37.8609136,39.7647388 35.5351625,37.4845477 35.5351625,34.7017037 C35.5351625,32.9227615 36.4646141,31.3726809 37.8609136,30.5063768 L39.6745467,35.1130929 C39.8598712,35.523078 40.2319348,35.7968694 40.6506831,35.7968694 C40.7907375,35.7968694 40.9293772,35.7968694 41.0227467,35.7056056 C41.5815495,35.476744 41.8602435,34.8842313 41.6282342,34.3366485 L39.8131864,29.7299324 C40.0932951,29.6850026 40.3719891,29.6386686 40.6506831,29.6386686 C43.4885522,29.6386686 45.8143033,31.9202637 45.8143033,34.7017037 C45.8595734,37.4845477 43.5338223,39.7647388 40.6973679,39.7647388 L40.6973679,39.7647388 Z M28.4178549,32.5127764 L25.3493913,25.9909245 L34.1855478,25.9909245 L28.4178549,32.5127764 Z M17.2559473,39.7647388 C14.4194929,39.7647388 12.0937419,37.4845477 12.0937419,34.7017037 C12.0937419,31.9202637 14.4194929,29.6386686 17.2559473,29.6386686 C17.8600201,29.6386686 18.4655076,29.7299324 18.9762109,29.958794 L16.3717658,33.8353996 C16.1397565,34.1541209 16.1397565,34.56551 16.325081,34.9305653 C16.5118201,35.2492865 16.8838837,35.476744 17.2559473,35.476744 L22.3261978,35.476744 C21.9541342,37.8945328 19.8137076,39.7647388 17.2559473,39.7647388 L17.2559473,39.7647388 Z M20.7912587,31.0525556 C21.4420163,31.6914022 21.9541342,32.4664425 22.1861435,33.3341507 L19.2096348,33.3341507 L20.7912587,31.0525556 Z M23.5343435,27.0846861 L26.4655821,33.3790806 L24.3718402,33.3790806 C24.0464614,31.782666 23.2089647,30.3687791 21.9541342,29.3199473 L23.5343435,27.0846861 Z M40.6973679,27.5873391 C40.1385652,27.5873391 39.5811772,27.632269 39.0690592,27.7698667 L36.2326049,20.6077641 L39.9532408,20.6077641 C40.8841071,20.6077641 41.6282342,21.3378745 41.6282342,22.2505126 C41.6282342,23.1631506 40.8841071,23.891857 39.9532408,23.891857 C39.3491679,23.891857 38.8837348,24.348176 38.8837348,24.9420928 C38.8837348,25.5346055 39.3491679,25.9909245 39.9532408,25.9909245 C42.0455679,25.9909245 43.7672462,24.3032462 43.7672462,22.2505126 C43.7672462,20.197779 42.0455679,18.5101006 39.9532408,18.5101006 L34.6976658,18.5101006 C34.3256022,18.5101006 34.0002234,18.6926282 33.8134842,18.9664197 C33.6281598,19.2402111 33.581475,19.6052663 33.7201147,19.9239876 L35.3017386,23.891857 L24.3718402,23.891857 L22.9302707,20.7902917 L24.697219,20.6077641 C25.0692826,20.5628342 25.3493913,20.2890428 25.3493913,19.9239876 L25.3493913,19.3764048 C25.3493913,19.0127536 25.0692826,18.7389622 24.697219,18.6926282 L18.372138,18.0088517 C18.093444,17.9625178 17.81475,18.1001155 17.6746957,18.373907 C17.5346413,18.6013644 17.5346413,18.9214898 17.7213804,19.1489473 L19.0695804,20.8815555 C19.2096348,21.0640831 19.3949592,21.1553469 19.6283832,21.1553469 L19.7217527,21.1553469 L20.6978891,21.0640831 L22.5115223,24.8957589 L20.232456,28.2711156 C19.3496891,27.8611305 18.3254533,27.6786029 17.3026321,27.6786029 C13.2566174,27.6786029 10,30.870028 10,34.8393014 C10,38.8071709 13.2566174,42 17.3026321,42 C21.0699527,42 24.1865158,39.1722261 24.5585794,35.5680078 L28.1858456,35.5680078 C28.5112245,35.5680078 28.7899185,35.4318142 28.9766576,35.2043567 L36.3712446,26.7196309 L37.0701016,28.544907 C34.8829902,29.7762664 33.3947359,32.1027914 33.3947359,34.7480376 C33.3947359,38.7159071 36.6513533,41.9087362 40.6973679,41.9087362 C44.6966978,41.9087362 48,38.7159071 48,34.7480376 C48,30.7801682 44.6966978,27.5873391 40.6973679,27.5873391 L40.6973679,27.5873391 Z" id="Fill-3" fill="#FFFFFF"></path>
        </g>
    </g>
</svg>