<?xml version="1.0" encoding="UTF-8"?>
<svg width="324px" height="303px" viewBox="0 0 324 303" version="1.1" xmlns="http://www.w3.org/2000/svg" xmlns:xlink="http://www.w3.org/1999/xlink">
    <title>Group</title>
    <g id="Page-1" stroke="none" stroke-width="1" fill="none" fill-rule="evenodd">
        <g id="Artboard" transform="translate(0.000000, 69.000000)" fill-rule="nonzero">
            <g id="Group" transform="translate(0.000000, -69.000000)">
                <g id="Path" opacity="0.84" transform="translate(206.000000, 166.000000) rotate(-5.000000) translate(-206.000000, -166.000000) translate(99.000000, 38.000000)" fill="#FDBD22">
                    <path d="M54.2344642,68.7388159 C41.6321784,91.8585876 31.7500893,105.618977 20.5911986,125.618946 C9.43231755,145.563263 -2.89244985,171.747077 0.605121821,198.933701 C4.15820101,226.119941 23.5336481,254.309663 46.850703,255.925243 C70.1123866,257.540824 97.260518,232.582263 125.406771,218.654713 C153.499285,204.783732 182.589824,201.88633 198.189739,185.841746 C213.845313,169.797162 215.955562,140.605013 212.680309,110.632908 C209.459756,80.6607452 200.799001,49.9644285 180.702212,28.1817055 C160.549763,6.39907842 128.904661,-6.46995491 105.476959,3.33474892 C82.04849,13.1399322 66.7813788,45.6190443 54.2344642,68.7388159 Z"></path>
                </g>
                <g id="Path-1" opacity="0.68" fill="#0A2F9B">
                    <path d="M182.035454,1.45445841 C206.812843,7.58790994 222.137442,34.5127437 226.029767,61.801407 C229.860657,89.0901118 222.322791,116.794628 203.847262,134.935074 C185.371732,153.127586 155.959581,161.755986 132.108936,158.22151 C108.258291,154.73889 89.9682151,139.093392 72.5434471,130.049097 C55.1186792,120.952946 38.6206554,118.457996 25.1504817,109.30978 C11.7420561,100.213503 1.36128286,84.5679955 0.125479982,66.7393446 C-1.11032289,48.9107666 6.79881342,28.9510687 23.1114363,21.5701426 C39.4857554,14.1891125 64.2018129,19.4390228 93.6756081,14.760889 C123.149716,10.0308984 157.3195,-4.62703234 182.035454,1.45445841 Z" id="Path"></path>
                </g>
            </g>
        </g>
    </g>
</svg>