<?xml version="1.0" encoding="UTF-8"?>
<svg width="59px" height="59px" viewBox="0 0 59 59" version="1.1" xmlns="http://www.w3.org/2000/svg" xmlns:xlink="http://www.w3.org/1999/xlink">
    <title>Artboard</title>
    <g id="Artboard" stroke="none" stroke-width="1" fill="none" fill-rule="evenodd">
        <g id="nap-pods-icon">
            <path d="M29.5,0 C45.7923505,0 59,13.2076495 59,29.5 C59,45.7923505 45.7923505,59 29.5,59 C13.2076495,59 0,45.7923505 0,29.5 C0,13.2076495 13.2076495,0 29.5,0" id="Fill-1" fill="#FD2BA8"></path>
            <path d="M39.9108253,33.7874943 C40.3240476,33.4872583 40.5493321,32.9243312 40.4366899,32.361404 C40.3240476,31.5733302 40.0986427,31.4608177 38.5586367,31.3481836 C37.5444952,31.2732158 36.7556382,31.1230371 36.7556382,30.9729798 C36.7556382,30.8228011 37.6195499,29.8471255 38.6336914,28.8339051 C40.0610551,27.4078148 40.5117445,26.7323751 40.4366899,26.0193907 C40.3240476,25.0811382 40.2864601,25.0811382 36.2297737,24.9686257 C32.1732078,24.8559917 31.1214787,25.1186829 31.1214787,26.2445373 C31.1214787,27.1826683 32.28585,27.8957742 33.8634436,27.8957742 L35.4034496,27.8957742 L33.2625244,30.0722721 C30.9712489,32.3989486 30.7834316,32.7742739 31.7225184,33.6748602 C32.4736674,34.462934 38.8966839,34.5380233 39.9108253,33.7874943 M27.3653724,33.7499496 C27.5907773,33.4497137 27.7410071,32.8118186 27.665832,32.3239808 C27.5531898,31.5733302 27.2903177,31.4608177 25.7877788,31.3481836 C24.7736374,31.2732158 23.9849008,31.1230371 23.9849008,30.9729798 C23.9849008,30.8228011 24.8488125,29.8471255 25.862954,28.8339051 C27.2903177,27.4078148 27.7410071,26.7323751 27.665832,26.0193907 C27.5531898,25.0811382 27.5156022,25.0811382 23.3463941,24.9686257 C19.5527002,24.8935364 19.1018903,24.931081 18.7638432,25.5689761 C18.1253364,26.7699198 19.214653,27.8957742 21.0551186,27.8957742 L22.5951246,27.8957742 L20.454079,30.1473614 C18.3507413,32.3239808 18.2755662,32.586672 19.214653,33.825039 C19.7405175,34.5004787 26.7644532,34.462934 27.3653724,33.7499496 M12.5663521,46.4342191 C11.8150826,45.7211132 11.8150826,46.0964385 12.7165819,41.1428493 C13.4677309,37.0148787 13.4677309,36.977334 12.7165819,34.0877302 C11.8150826,30.5601099 11.7774951,28.4210352 12.5287645,25.4564635 C13.4301433,22.0790219 14.4818723,20.1650938 16.9609651,17.5381813 C22.7453544,11.3462252 31.9103357,10.2203709 39.0469137,14.7987562 C48.5499421,20.8780782 49.751901,34.3128768 41.4884189,42.0434356 C38.8590963,44.520291 36.9434556,45.571056 33.562984,46.4717638 C30.5956142,47.2222928 28.454689,47.1847482 24.9238672,46.2840404 C22.0316725,45.5335113 21.9942054,45.5335113 17.8624644,46.2840404 C12.9043992,47.1847482 13.2799135,47.1847482 12.5663521,46.4342191" id="Fill-3" fill="#FFFEFF"></path>
        </g>
    </g>
</svg>