<svg id="Capa_1" data-name="Capa 1" xmlns="http://www.w3.org/2000/svg" viewBox="0 0 512 512"><defs><style>.cls-1{fill:#fff;}</style></defs><title>androidappArtboard 6</title><path class="cls-1" d="M455.06,103.66H55.53A38.39,38.39,0,0,0,17.16,142V384.79a38.39,38.39,0,0,0,38.37,38.37h.66c0,7.27,6,12.56,13.22,12.56s12.57-6,13.23-12.56h346c0,7.27,6,12.56,13.22,12.56s12.57-6,13.23-12.56h.66a38.39,38.39,0,0,0,38.37-38.37V142C493.43,120.85,476.24,103.66,455.06,103.66ZM467,384.79a11.86,11.86,0,0,1-11.91,11.9H55.53a11.86,11.86,0,0,1-11.91-11.9V142a11.86,11.86,0,0,1,11.91-11.91H455.06A11.86,11.86,0,0,1,467,142Z"/><path class="cls-1" d="M455.06,130.12H55.53A11.86,11.86,0,0,0,43.62,142V384.79a11.86,11.86,0,0,0,11.91,11.9H455.06A11.86,11.86,0,0,0,467,384.79V142A11.86,11.86,0,0,0,455.06,130.12ZM338,359.66a13.27,13.27,0,0,1-13.23,13.22H80.66a13.27,13.27,0,0,1-13.23-13.22V167.16a13.27,13.27,0,0,1,13.23-13.23H324.09c7.28,0,13.23,6,13.89,13.23Zm69.46-24.47H396.19a13.23,13.23,0,0,1,0-26.46h11.25A12.86,12.86,0,0,1,420.67,322,13.27,13.27,0,0,1,407.44,335.18Zm0-49H396.19a13.23,13.23,0,0,1,0-26.46h11.25A12.86,12.86,0,0,1,420.67,273,13.26,13.26,0,0,1,407.44,286.22Zm-5.3-55.56a38.37,38.37,0,1,1,38.37-38.37A38.39,38.39,0,0,1,402.14,230.66Z"/><path class="cls-1" d="M324.09,153.93H80.66a13.27,13.27,0,0,0-13.23,13.23v192.5a13.27,13.27,0,0,0,13.23,13.22H324.75A13.27,13.27,0,0,0,338,359.66V167.16C337.32,159.88,331.37,153.93,324.09,153.93Zm-12.56,192.5H93.89V302.77h19.84a13.23,13.23,0,0,0,0-26.46H93.89V249.85h52.92a13.23,13.23,0,0,0,0-26.46H93.89v-43H311.53Z"/></svg>