<?xml version="1.0" encoding="UTF-8"?>
<svg width="480px" height="295px" viewBox="0 0 480 295" version="1.1" xmlns="http://www.w3.org/2000/svg" xmlns:xlink="http://www.w3.org/1999/xlink">
    <title>Group 2</title>
    <g id="Page-1" stroke="none" stroke-width="1" fill="none" fill-rule="evenodd" opacity="0.8378">
        <g id="Blob" fill-rule="nonzero">
            <g id="Group-2">
                <path d="M404.478033,79.210296 C422.02665,105.852662 435.788123,121.709408 451.326907,144.756199 C466.865692,167.738908 484.028111,197.911645 479.157207,229.239997 C474.210133,260.568222 447.229735,293.05214 414.759716,294.913844 C382.367204,296.775658 344.562576,268.015148 305.367502,251.965823 C266.249267,235.980691 225.739384,232.64244 204.015687,214.153565 C182.214555,195.664734 179.276814,162.0253 183.838038,127.487099 C188.321956,92.9488983 200.382086,57.5758588 228.367934,32.475448 C256.431022,7.37393233 300.497133,-7.45561753 333.120963,3.84277145 C365.745996,15.1422653 387.005587,52.5685931 404.478033,79.210296 Z" id="Path" fill="#FDBD22"></path>
                <path d="M259.01961,20.2228515 C294.275543,29.5966171 316.08103,70.7458913 321.619449,112.451207 C327.07045,154.156586 316.344764,196.49745 290.055795,224.221529 C263.766826,252.025178 221.916056,265.211979 187.978795,259.810232 C154.041533,254.487737 128.016447,230.576694 103.222614,216.754281 C78.4287814,202.852615 54.9536198,199.039579 35.7868087,185.058343 C16.7078596,171.156486 1.93697957,147.245427 0.178546406,119.997866 C-1.57988676,92.7504168 9.67408253,62.2459729 32.8854358,50.9656896 C56.1845771,39.6852474 91.3532404,47.7086952 133.291724,40.5590945 C175.230653,33.3302409 223.851095,10.9284978 259.01961,20.2228515 Z" id="Path" fill-opacity="0.85" fill="#0A2F9B"></path>
            </g>
        </g>
    </g>
</svg>